# xmcd
#
# Track frame offsets:
# 150
# 21430
# 48595
# 68950
# 92900
# 111945
# 134675
# 147505
# 171150
# 193657
# 207495
# 228090
# 252032
# 266807
#
# Disc length: 3818 seconds
#
# Revision: 0
# Processed by: cddbd v1.4PL0 Copyright (c) Steve Scherf et al.
# Submitted via: Axialis_AX_CDPlayer 2.6
#
DISCID=db0ee80e
DTITLE=Paul Lamb and the King Snakes - The Blue Album
DYEAR=1900
DGENRE=
TTITLE0=Somedays
TTITLE1=Forever Blue
TTITLE2=Done Quit Drinkin'
TTITLE3=Superstitious
TTITLE4=Please Tell Me
TTITLE5=Millennium Blues
TTITLE6=One Step Ahead
TTITLE7=The Best I Can
TTITLE8=Burnin' Love
TTITLE9=Crazy  'bout It
TTITLE10=Can't Do Right
TTITLE11=Never Turn Your Back on a Friend
TTITLE12=Look Out Pinetop
TTITLE13=Slowdown
EXTD=
EXTT0=
EXTT1=
EXTT2=
EXTT3=
EXTT4=
EXTT5=
EXTT6=
EXTT7=
EXTT8=
EXTT9=
EXTT10=
EXTT11=
EXTT12=
EXTT13=
PLAYORDER=
